<svg width="48" height="48" viewBox="0 0 48 48" fill="none" xmlns="http://www.w3.org/2000/svg">
<path d="M19.7205 32.1992L17.0632 42.0513" stroke="url(#paint0_linear_140_23)" stroke-width="0.519298" stroke-miterlimit="10"/>
<path d="M27.1353 5L24.4781 14.8521" stroke="url(#paint1_linear_140_23)" stroke-width="0.519298" stroke-miterlimit="10"/>
<path d="M13.307 29.4825H13.9901C14.1285 32.0009 15.1483 34.0763 17.0495 35.7088C18.9106 37.3221 21.0493 38.1287 23.4654 38.1286C25.3265 38.1286 26.8413 37.6072 28.01 36.5646C29.1781 35.5221 29.7622 34.2729 29.7624 32.817C29.7624 31.2825 29.198 30.0923 28.0693 29.2464C26.9801 28.4201 24.8316 27.4857 21.6238 26.4431C19.0494 25.5974 17.2177 24.899 16.1287 24.3479C14.8612 23.6987 13.8711 22.8233 13.1584 21.7216C12.3862 20.6003 12 19.3413 12 17.9445C12 16.3907 12.5247 14.8661 13.5742 13.3707C13.3366 14.1379 13.2178 14.8067 13.2178 15.3773C13.2178 16.9117 13.5841 18.2593 14.3168 19.42C15.0691 20.6202 15.9998 21.5251 17.1089 22.1348C18.2176 22.7646 20.0691 23.4827 22.6634 24.2889C26.0495 25.3121 28.4951 26.4432 30 27.6824C31.4453 28.8826 32.168 30.4958 32.1683 32.5219C32.1683 34.5091 31.4158 36.3091 29.9109 37.922C28.3859 39.5551 26.1087 40.3715 23.0792 40.3712C21.8512 40.3712 20.1482 40.1449 17.9703 39.6925C16.0693 39.2992 14.6436 39.0926 13.6931 39.0728L13.4852 38.8367C13.5047 38.5024 13.5146 38.0696 13.5149 37.5383C13.5149 36.909 13.4555 35.9352 13.3367 34.617C13.2374 33.2992 13.1879 32.3156 13.1882 31.6661C13.1815 30.9365 13.2212 30.2072 13.307 29.4825V29.4825ZM34.2772 17.1478H33.6535C33.6335 14.8659 32.7226 13.1741 30.9208 12.0723C29.1581 10.9906 27.0195 10.4496 24.505 10.4493C22.5046 10.4493 20.8611 10.8722 19.5743 11.7182C18.2673 12.5643 17.6139 13.5774 17.6139 14.7576C17.6139 16.0168 18.1287 17.0103 19.1584 17.738C20.2277 18.525 22.3366 19.4595 25.4852 20.5413C28.4156 21.5446 30.4651 22.361 31.6337 22.9905C32.8812 23.6793 33.9208 24.663 34.7525 25.9414C35.5842 27.2596 36 28.7252 36 30.3382C36 32.7976 35.0891 34.7255 33.2673 36.1219C33.9403 35.1975 34.2769 33.8991 34.2772 32.2267C34.2772 30.6531 33.9109 29.2563 33.1783 28.0365C32.4059 26.7972 31.4554 25.8136 30.3267 25.0857C29.178 24.3383 27.3068 23.5415 24.7129 22.6955C20.8116 21.4169 18.267 20.3251 17.0792 19.42C15.8911 18.4955 15.2971 17.0594 15.297 15.1117C15.297 12.869 16.2079 11.1083 18.0297 9.82959C19.8513 8.59023 22.4355 7.97055 25.7822 7.97055C28.0591 7.97055 30.8412 8.36399 34.1287 9.15088V9.35746L34.1881 10.4788C34.1881 11.069 34.2079 11.7772 34.2475 12.6034C34.3069 13.6067 34.3366 14.492 34.3366 15.2592C34.3366 15.771 34.3168 16.4006 34.2772 17.1478Z" fill="black"/>
<path d="M13.307 29.4825H13.9901C14.1285 32.0009 15.1483 34.0763 17.0495 35.7088C18.9106 37.3221 21.0493 38.1287 23.4654 38.1286C25.3265 38.1286 26.8413 37.6072 28.01 36.5646C29.1781 35.5221 29.7622 34.2729 29.7624 32.817C29.7624 31.2825 29.198 30.0923 28.0693 29.2464C26.9801 28.4201 24.8316 27.4857 21.6238 26.4431C19.0494 25.5974 17.2177 24.899 16.1287 24.3479C14.8612 23.6987 13.8711 22.8233 13.1584 21.7216C12.3862 20.6003 12 19.3413 12 17.9445C12 16.3907 12.5247 14.8661 13.5742 13.3707C13.3366 14.1379 13.2178 14.8067 13.2178 15.3773C13.2178 16.9117 13.5841 18.2593 14.3168 19.42C15.0691 20.6202 15.9998 21.5251 17.1089 22.1348C18.2176 22.7646 20.0691 23.4827 22.6634 24.2889C26.0495 25.3121 28.4951 26.4432 30 27.6824C31.4453 28.8826 32.168 30.4958 32.1683 32.5219C32.1683 34.5091 31.4158 36.3091 29.9109 37.922C28.3859 39.5551 26.1087 40.3715 23.0792 40.3712C21.8512 40.3712 20.1482 40.1449 17.9703 39.6925C16.0693 39.2992 14.6436 39.0926 13.6931 39.0728L13.4852 38.8367C13.5047 38.5024 13.5146 38.0696 13.5149 37.5383C13.5149 36.909 13.4555 35.9352 13.3367 34.617C13.2374 33.2992 13.1879 32.3156 13.1882 31.6661C13.1815 30.9365 13.2212 30.2072 13.307 29.4825V29.4825ZM34.2772 17.1478H33.6535C33.6335 14.8659 32.7226 13.1741 30.9208 12.0723C29.1581 10.9906 27.0195 10.4496 24.505 10.4493C22.5046 10.4493 20.8611 10.8722 19.5743 11.7182C18.2673 12.5643 17.6139 13.5774 17.6139 14.7576C17.6139 16.0168 18.1287 17.0103 19.1584 17.738C20.2277 18.525 22.3366 19.4595 25.4852 20.5413C28.4156 21.5446 30.4651 22.361 31.6337 22.9905C32.8812 23.6793 33.9208 24.663 34.7525 25.9414C35.5842 27.2596 36 28.7252 36 30.3382C36 32.7976 35.0891 34.7255 33.2673 36.1219C33.9403 35.1975 34.2769 33.8991 34.2772 32.2267C34.2772 30.6531 33.9109 29.2563 33.1783 28.0365C32.4059 26.7972 31.4554 25.8136 30.3267 25.0857C29.178 24.3383 27.3068 23.5415 24.7129 22.6955C20.8116 21.4169 18.267 20.3251 17.0792 19.42C15.8911 18.4955 15.2971 17.0594 15.297 15.1117C15.297 12.869 16.2079 11.1083 18.0297 9.82959C19.8513 8.59023 22.4355 7.97055 25.7822 7.97055C28.0591 7.97055 30.8412 8.36399 34.1287 9.15088V9.35746L34.1881 10.4788C34.1881 11.069 34.2079 11.7772 34.2475 12.6034C34.3069 13.6067 34.3366 14.492 34.3366 15.2592C34.3366 15.771 34.3168 16.4006 34.2772 17.1478Z" fill="url(#paint2_linear_140_23)"/>
<path d="M13.307 29.4825H13.9901C14.1285 32.0009 15.1483 34.0763 17.0495 35.7088C18.9106 37.3221 21.0493 38.1287 23.4654 38.1286C25.3265 38.1286 26.8413 37.6072 28.01 36.5646C29.1781 35.5221 29.7622 34.2729 29.7624 32.817C29.7624 31.2825 29.198 30.0923 28.0693 29.2464C26.9801 28.4201 24.8316 27.4857 21.6238 26.4431C19.0494 25.5974 17.2177 24.899 16.1287 24.3479C14.8612 23.6987 13.8711 22.8233 13.1584 21.7216C12.3862 20.6003 12 19.3413 12 17.9445C12 16.3907 12.5247 14.8661 13.5742 13.3707C13.3366 14.1379 13.2178 14.8067 13.2178 15.3773C13.2178 16.9117 13.5841 18.2593 14.3168 19.42C15.0691 20.6202 15.9998 21.5251 17.1089 22.1348C18.2176 22.7646 20.0691 23.4827 22.6634 24.2889C26.0495 25.3121 28.4951 26.4432 30 27.6824C31.4453 28.8826 32.168 30.4958 32.1683 32.5219C32.1683 34.5091 31.4158 36.3091 29.9109 37.922C28.3859 39.5551 26.1087 40.3715 23.0792 40.3712C21.8512 40.3712 20.1482 40.1449 17.9703 39.6925C16.0693 39.2992 14.6436 39.0926 13.6931 39.0728L13.4852 38.8367C13.5047 38.5024 13.5146 38.0696 13.5149 37.5383C13.5149 36.909 13.4555 35.9352 13.3367 34.617C13.2374 33.2992 13.1879 32.3156 13.1882 31.6661C13.1815 30.9365 13.2212 30.2072 13.307 29.4825V29.4825ZM34.2772 17.1478H33.6535C33.6335 14.8659 32.7226 13.1741 30.9208 12.0723C29.1581 10.9906 27.0195 10.4496 24.505 10.4493C22.5046 10.4493 20.8611 10.8722 19.5743 11.7182C18.2673 12.5643 17.6139 13.5774 17.6139 14.7576C17.6139 16.0168 18.1287 17.0103 19.1584 17.738C20.2277 18.525 22.3366 19.4595 25.4852 20.5413C28.4156 21.5446 30.4651 22.361 31.6337 22.9905C32.8812 23.6793 33.9208 24.663 34.7525 25.9414C35.5842 27.2596 36 28.7252 36 30.3382C36 32.7976 35.0891 34.7255 33.2673 36.1219C33.9403 35.1975 34.2769 33.8991 34.2772 32.2267C34.2772 30.6531 33.9109 29.2563 33.1783 28.0365C32.4059 26.7972 31.4554 25.8136 30.3267 25.0857C29.178 24.3383 27.3068 23.5415 24.7129 22.6955C20.8116 21.4169 18.267 20.3251 17.0792 19.42C15.8911 18.4955 15.2971 17.0594 15.297 15.1117C15.297 12.869 16.2079 11.1083 18.0297 9.82959C19.8513 8.59023 22.4355 7.97055 25.7822 7.97055C28.0591 7.97055 30.8412 8.36399 34.1287 9.15088V9.35746L34.1881 10.4788C34.1881 11.069 34.2079 11.7772 34.2475 12.6034C34.3069 13.6067 34.3366 14.492 34.3366 15.2592C34.3366 15.771 34.3168 16.4006 34.2772 17.1478Z" stroke="url(#paint3_linear_140_23)" stroke-width="0.649123" stroke-miterlimit="10"/>
<path d="M29.9872 5.91422L27.33 15.7664" stroke="url(#paint4_linear_140_23)" stroke-width="0.519298" stroke-miterlimit="10"/>
<path d="M22.1966 33.1134L19.5394 42.9655" stroke="url(#paint5_linear_140_23)" stroke-width="0.519298" stroke-miterlimit="10"/>
<defs>
<linearGradient id="paint0_linear_140_23" x1="17.0632" y1="42.0513" x2="19.6881" y2="32.1906" gradientUnits="userSpaceOnUse">
<stop offset="0.198" stop-color="#917C4A"/>
<stop offset="0.2649" stop-color="#9E8753"/>
<stop offset="0.4098" stop-color="#B49B62"/>
<stop offset="0.5683" stop-color="#C4A86D"/>
<stop offset="0.7489" stop-color="#CDB073"/>
<stop offset="1" stop-color="#D0B375"/>
</linearGradient>
<linearGradient id="paint1_linear_140_23" x1="1192.05" y1="878.637" x2="1192.05" y2="-717.41" gradientUnits="userSpaceOnUse">
<stop offset="0.198" stop-color="#917C4A"/>
<stop offset="0.2649" stop-color="#9E8753"/>
<stop offset="0.4098" stop-color="#B49B62"/>
<stop offset="0.5683" stop-color="#C4A86D"/>
<stop offset="0.7489" stop-color="#CDB073"/>
<stop offset="1" stop-color="#D0B375"/>
</linearGradient>
<linearGradient id="paint2_linear_140_23" x1="10198.9" y1="18502.1" x2="10198.9" y2="1828.28" gradientUnits="userSpaceOnUse">
<stop offset="0.198" stop-color="#917C4A"/>
<stop offset="0.2649" stop-color="#9E8753"/>
<stop offset="0.4098" stop-color="#B49B62"/>
<stop offset="0.5683" stop-color="#C4A86D"/>
<stop offset="0.7489" stop-color="#CDB073"/>
<stop offset="1" stop-color="#D0B375"/>
</linearGradient>
<linearGradient id="paint3_linear_140_23" x1="10198.9" y1="18502.1" x2="10198.9" y2="1828.28" gradientUnits="userSpaceOnUse">
<stop offset="0.198" stop-color="#917C4A"/>
<stop offset="0.2649" stop-color="#9E8753"/>
<stop offset="0.4098" stop-color="#B49B62"/>
<stop offset="0.5683" stop-color="#C4A86D"/>
<stop offset="0.7489" stop-color="#CDB073"/>
<stop offset="1" stop-color="#D0B375"/>
</linearGradient>
<linearGradient id="paint4_linear_140_23" x1="1320.39" y1="902.983" x2="1320.39" y2="-693.064" gradientUnits="userSpaceOnUse">
<stop offset="0.198" stop-color="#917C4A"/>
<stop offset="0.2649" stop-color="#9E8753"/>
<stop offset="0.4098" stop-color="#B49B62"/>
<stop offset="0.5683" stop-color="#C4A86D"/>
<stop offset="0.7489" stop-color="#CDB073"/>
<stop offset="1" stop-color="#D0B375"/>
</linearGradient>
<linearGradient id="paint5_linear_140_23" x1="1294.19" y1="5354.74" x2="1294.19" y2="3758.7" gradientUnits="userSpaceOnUse">
<stop offset="0.198" stop-color="#917C4A"/>
<stop offset="0.2649" stop-color="#9E8753"/>
<stop offset="0.4098" stop-color="#B49B62"/>
<stop offset="0.5683" stop-color="#C4A86D"/>
<stop offset="0.7489" stop-color="#CDB073"/>
<stop offset="1" stop-color="#D0B375"/>
</linearGradient>
</defs>
</svg>
