<svg width="45" height="45" viewBox="0 0 45 45" fill="none" xmlns="http://www.w3.org/2000/svg">
<path d="M22.5 0C10.08 0 0 10.08 0 22.5C0 34.92 10.08 45 22.5 45C34.92 45 45 34.92 45 22.5C45 10.08 34.92 0 22.5 0ZM22.5 40.5C12.5775 40.5 4.5 32.4225 4.5 22.5C4.5 12.5775 12.5775 4.5 22.5 4.5C32.4225 4.5 40.5 12.5775 40.5 22.5C40.5 32.4225 32.4225 40.5 22.5 40.5ZM24.5025 20.475C20.4975 19.1475 18.5625 18.315 18.5625 16.2C18.5625 13.905 21.06 13.0725 22.635 13.0725C25.5825 13.0725 26.6625 15.3 26.91 16.0875L30.465 14.58C30.1275 13.59 28.62 10.2825 24.48 9.5625V6.75H20.5425V9.585C14.6925 10.845 14.6475 15.9975 14.6475 16.245C14.6475 21.3525 19.71 22.7925 22.185 23.6925C25.74 24.9525 27.315 26.1 27.315 28.26C27.315 30.8025 24.9525 31.8825 22.86 31.8825C18.765 31.8825 17.595 27.675 17.46 27.18L13.725 28.6875C15.1425 33.615 18.855 34.9425 20.52 35.3475V38.25H24.4575V35.46C25.6275 35.2575 31.2525 34.1325 31.2525 28.215C31.275 25.0875 29.9025 22.3425 24.5025 20.475Z" fill="#D9BF87"/>
</svg>
