<svg width="50" height="37" viewBox="0 0 50 37" fill="none" xmlns="http://www.w3.org/2000/svg">
<path d="M35.6136 20.75C38.7273 22.8636 40.9091 25.7273 40.9091 29.5455V36.3636H50V29.5455C50 24.5909 41.8864 21.6591 35.6136 20.75Z" fill="#D9BF87"/>
<path d="M31.8182 18.1818C36.8409 18.1818 40.9091 14.1136 40.9091 9.09091C40.9091 4.06818 36.8409 0 31.8182 0C30.75 0 29.75 0.227272 28.7955 0.545454C30.6818 2.88636 31.8182 5.86364 31.8182 9.09091C31.8182 12.3182 30.6818 15.2955 28.7955 17.6364C29.75 17.9545 30.75 18.1818 31.8182 18.1818Z" fill="#D9BF87"/>
<path d="M18.1819 18.1818C23.2046 18.1818 27.2728 14.1136 27.2728 9.09091C27.2728 4.06818 23.2046 0 18.1819 0C13.1591 0 9.09094 4.06818 9.09094 9.09091C9.09094 14.1136 13.1591 18.1818 18.1819 18.1818ZM18.1819 4.54545C20.6819 4.54545 22.7273 6.59091 22.7273 9.09091C22.7273 11.5909 20.6819 13.6364 18.1819 13.6364C15.6819 13.6364 13.6364 11.5909 13.6364 9.09091C13.6364 6.59091 15.6819 4.54545 18.1819 4.54545Z" fill="#D9BF87"/>
<path d="M18.1818 20.4546C12.1136 20.4546 0 23.5 0 29.5455V36.3637H36.3636V29.5455C36.3636 23.5 24.25 20.4546 18.1818 20.4546ZM31.8182 31.8182H4.54545V29.5682C5 27.9319 12.0455 25 18.1818 25C24.3182 25 31.3636 27.9319 31.8182 29.5455V31.8182Z" fill="#D9BF87"/>
</svg>
