<svg width="25" height="25" viewBox="0 0 25 25" fill="none" xmlns="http://www.w3.org/2000/svg">
<path d="M21.3568 3.6375C19.0075 1.2875 15.8794 0 12.5502 0C5.69095 0 0.100503 5.5625 0.100503 12.3875C0.100503 14.575 0.678392 16.7 1.75879 18.575L0 25L6.59548 23.275C8.41708 24.2625 10.4648 24.7875 12.5502 24.7875C19.4095 24.7875 25 19.225 25 12.4C25 9.0875 23.706 5.975 21.3568 3.6375ZM12.5502 22.6875C10.691 22.6875 8.86935 22.1875 7.27387 21.25L6.89698 21.025L2.97739 22.05L4.0201 18.25L3.76884 17.8625C2.73869 16.225 2.18593 14.325 2.18593 12.3875C2.18593 6.7125 6.83417 2.0875 12.5377 2.0875C15.3015 2.0875 17.902 3.1625 19.8492 5.1125C21.809 7.0625 22.8769 9.65 22.8769 12.4C22.902 18.075 18.2538 22.6875 12.5502 22.6875ZM18.2286 14.9875C17.9146 14.8375 16.3819 14.0875 16.1055 13.975C15.8166 13.875 15.6156 13.825 15.402 14.125C15.1884 14.4375 14.598 15.1375 14.4221 15.3375C14.2462 15.55 14.0578 15.575 13.7437 15.4125C13.4296 15.2625 12.4246 14.925 11.2437 13.875C10.3141 13.05 9.69849 12.0375 9.51005 11.725C9.33417 11.4125 9.48492 11.25 9.64824 11.0875C9.78643 10.95 9.96231 10.725 10.1131 10.55C10.2638 10.375 10.3266 10.2375 10.4271 10.0375C10.5276 9.825 10.4774 9.65 10.402 9.5C10.3266 9.35 9.69849 7.825 9.44723 7.2C9.19598 6.6 8.93216 6.675 8.74372 6.6625C8.55527 6.6625 8.35427 6.6625 8.1407 6.6625C7.92713 6.6625 7.6005 6.7375 7.31156 7.05C7.03517 7.3625 6.23115 8.1125 6.23115 9.6375C6.23115 11.1625 7.34925 12.6375 7.5 12.8375C7.65075 13.05 9.69849 16.175 12.8141 17.5125C13.5553 17.8375 14.1332 18.025 14.5854 18.1625C15.3266 18.4 16.005 18.3625 16.5452 18.2875C17.1482 18.2 18.392 17.5375 18.6432 16.8125C18.907 16.0875 18.907 15.475 18.8191 15.3375C18.7312 15.2 18.5427 15.1375 18.2286 14.9875Z" fill="#588AE3"/>
</svg>
