<svg width="40" height="40" viewBox="0 0 40 40" fill="none" xmlns="http://www.w3.org/2000/svg">
<path d="M8.75 0C3.925 0 0 3.925 0 8.75C0 13.575 3.925 17.5 8.75 17.5C13.575 17.5 17.5 13.575 17.5 8.75C17.5 3.925 13.575 0 8.75 0ZM8.75 12.5C6.675 12.5 5 10.825 5 8.75C5 6.675 6.675 5 8.75 5C10.825 5 12.5 6.675 12.5 8.75C12.5 10.825 10.825 12.5 8.75 12.5ZM31.25 22.5C26.425 22.5 22.5 26.425 22.5 31.25C22.5 36.075 26.425 40 31.25 40C36.075 40 40 36.075 40 31.25C40 26.425 36.075 22.5 31.25 22.5ZM31.25 35C29.175 35 27.5 33.325 27.5 31.25C27.5 29.175 29.175 27.5 31.25 27.5C33.325 27.5 35 29.175 35 31.25C35 33.325 33.325 35 31.25 35ZM3.525 40L0 36.475L36.475 0L40 3.525L3.525 40Z" fill="#D9BF87"/>
</svg>
