<svg width="46" height="40" viewBox="0 0 46 40" fill="none" xmlns="http://www.w3.org/2000/svg">
<path d="M40.5917 2.525C40.09 1.05 38.6851 0 37.0294 0H9.43427C7.77856 0 6.3988 1.05 5.87198 2.525L0.653992 17.5V37.5C0.653992 38.875 1.78288 40 3.16264 40H5.67129C7.05105 40 8.17994 38.875 8.17994 37.5V35H38.2837V37.5C38.2837 38.875 39.4126 40 40.7924 40H43.3011C44.6808 40 45.8097 38.875 45.8097 37.5V17.5L40.5917 2.525ZM10.3123 5H36.1263L38.7353 12.5H7.7033L10.3123 5ZM40.7924 30H5.67129V18.35L5.97233 17.5H40.5164L40.7924 18.35V30Z" fill="#D9BF87"/>
<path d="M11.9429 27.5C14.0211 27.5 15.7059 25.8211 15.7059 23.75C15.7059 21.6789 14.0211 20 11.9429 20C9.86467 20 8.17993 21.6789 8.17993 23.75C8.17993 25.8211 9.86467 27.5 11.9429 27.5Z" fill="#D9BF87"/>
<path d="M34.5208 27.5C36.599 27.5 38.2837 25.8211 38.2837 23.75C38.2837 21.6789 36.599 20 34.5208 20C32.4425 20 30.7578 21.6789 30.7578 23.75C30.7578 25.8211 32.4425 27.5 34.5208 27.5Z" fill="#D9BF87"/>
</svg>
