<svg width="90" height="64" viewBox="0 0 90 64" fill="none" xmlns="http://www.w3.org/2000/svg">
<g clip-path="url(#clip0_113_78)">
<path d="M37.5714 46.1177L33.1579 62.4816" stroke="url(#paint0_linear_113_78)" stroke-width="0.519298" stroke-miterlimit="10"/>
<path d="M49.8872 0.941193L45.4737 17.3051" stroke="url(#paint1_linear_113_78)" stroke-width="0.519298" stroke-miterlimit="10"/>
<path d="M26.919 41.6054H28.0537C28.2835 45.7883 29.9773 49.2355 33.1352 51.947C36.2264 54.6267 39.7785 55.9664 43.7916 55.9661C46.8828 55.9661 49.3989 55.1002 51.3399 53.3684C53.2801 51.6369 54.2503 49.562 54.2506 47.1438C54.2506 44.5952 53.3132 42.6184 51.4385 41.2133C49.6293 39.8409 46.0607 38.2889 40.7328 36.5571C36.4568 35.1525 33.4145 33.9925 31.6058 33.0772C29.5005 31.9989 27.856 30.5448 26.6723 28.715C25.3896 26.8525 24.7482 24.7613 24.7482 22.4414C24.7482 19.8606 25.6197 17.3283 27.3629 14.8445C26.9682 16.1188 26.7709 17.2297 26.7709 18.1773C26.7709 20.7259 27.3794 22.9642 28.5963 24.8921C29.8458 26.8855 31.3917 28.3886 33.2338 29.4012C35.0754 30.4473 38.1506 31.64 42.4595 32.9792C48.0837 34.6785 52.1456 36.5574 54.6453 38.6156C57.0458 40.6091 58.2463 43.2885 58.2467 46.6537C58.2467 49.9544 56.9969 52.9441 54.4973 55.623C51.9643 58.3355 48.1819 59.6915 43.1502 59.691C41.1105 59.691 38.2819 59.3152 34.6646 58.5637C31.5071 57.9105 29.1391 57.5674 27.5604 57.5345L27.215 57.1423C27.2474 56.5871 27.2638 55.8682 27.2644 54.9858C27.2644 53.9405 27.1657 52.323 26.9683 50.1336C26.8034 47.9448 26.7212 46.3111 26.7217 45.2323C26.7106 44.0204 26.7765 42.8091 26.919 41.6054ZM61.7495 21.1181H60.7135C60.6803 17.328 59.1674 14.518 56.1747 12.6879C53.2469 10.8913 49.6948 9.99276 45.5183 9.99221C42.1958 9.99221 39.466 10.6947 37.3287 12.0997C35.1579 13.5051 34.0725 15.1879 34.0725 17.1481C34.0725 19.2396 34.9277 20.8897 36.638 22.0984C38.414 23.4056 41.9168 24.9577 47.1463 26.7545C52.0136 28.4209 55.4178 29.7769 57.3587 30.8225C59.4308 31.9667 61.1575 33.6004 62.5389 35.7238C63.9203 37.9133 64.611 40.3476 64.611 43.0267C64.611 47.1116 63.098 50.3137 60.0721 52.6331C61.1899 51.0977 61.7491 48.9411 61.7495 46.1635C61.7495 43.5497 61.1411 41.2298 59.9242 39.2037C58.6414 37.1452 57.0627 35.5115 55.1879 34.3025C53.28 33.0611 50.1719 31.7378 45.8636 30.3325C39.3838 28.2089 35.1574 26.3954 33.1845 24.8921C31.2111 23.3566 30.2244 20.9713 30.2244 17.7362C30.2244 14.0112 31.7373 11.0868 34.7632 8.96292C37.7888 6.9044 42.081 5.87515 47.6397 5.87515C51.4215 5.87515 56.0425 6.52864 61.5028 7.83562V8.17874L61.6015 10.0412C61.6015 11.0214 61.6344 12.1978 61.7002 13.5701C61.7989 15.2366 61.8482 16.707 61.8482 17.9813C61.8482 18.8314 61.8153 19.877 61.7495 21.1181Z" fill="black"/>
<path d="M26.919 41.6054H28.0537C28.2835 45.7883 29.9773 49.2355 33.1352 51.947C36.2264 54.6267 39.7785 55.9664 43.7916 55.9661C46.8828 55.9661 49.3989 55.1002 51.3399 53.3684C53.2801 51.6369 54.2503 49.562 54.2506 47.1438C54.2506 44.5952 53.3132 42.6184 51.4385 41.2133C49.6293 39.8409 46.0607 38.2889 40.7328 36.5571C36.4568 35.1525 33.4145 33.9925 31.6058 33.0772C29.5005 31.9989 27.856 30.5448 26.6723 28.715C25.3896 26.8525 24.7482 24.7613 24.7482 22.4414C24.7482 19.8606 25.6197 17.3283 27.3629 14.8445C26.9682 16.1188 26.7709 17.2297 26.7709 18.1773C26.7709 20.7259 27.3794 22.9642 28.5963 24.8921C29.8458 26.8855 31.3917 28.3886 33.2338 29.4012C35.0754 30.4473 38.1506 31.64 42.4595 32.9792C48.0837 34.6785 52.1456 36.5574 54.6453 38.6156C57.0458 40.6091 58.2463 43.2885 58.2467 46.6537C58.2467 49.9544 56.9969 52.9441 54.4973 55.623C51.9643 58.3355 48.1819 59.6915 43.1502 59.691C41.1105 59.691 38.2819 59.3152 34.6646 58.5637C31.5071 57.9105 29.1391 57.5674 27.5604 57.5345L27.215 57.1423C27.2474 56.5871 27.2638 55.8682 27.2644 54.9858C27.2644 53.9405 27.1657 52.323 26.9683 50.1336C26.8034 47.9448 26.7212 46.3111 26.7217 45.2323C26.7106 44.0204 26.7765 42.8091 26.919 41.6054ZM61.7495 21.1181H60.7135C60.6803 17.328 59.1674 14.518 56.1747 12.6879C53.2469 10.8913 49.6948 9.99276 45.5183 9.99221C42.1958 9.99221 39.466 10.6947 37.3287 12.0997C35.1579 13.5051 34.0725 15.1879 34.0725 17.1481C34.0725 19.2396 34.9277 20.8897 36.638 22.0984C38.414 23.4056 41.9168 24.9577 47.1463 26.7545C52.0136 28.4209 55.4178 29.7769 57.3587 30.8225C59.4308 31.9667 61.1575 33.6004 62.5389 35.7238C63.9203 37.9133 64.611 40.3476 64.611 43.0267C64.611 47.1116 63.098 50.3137 60.0721 52.6331C61.1899 51.0977 61.7491 48.9411 61.7495 46.1635C61.7495 43.5497 61.1411 41.2298 59.9242 39.2037C58.6414 37.1452 57.0627 35.5115 55.1879 34.3025C53.28 33.0611 50.1719 31.7378 45.8636 30.3325C39.3838 28.2089 35.1574 26.3954 33.1845 24.8921C31.2111 23.3566 30.2244 20.9713 30.2244 17.7362C30.2244 14.0112 31.7373 11.0868 34.7632 8.96292C37.7888 6.9044 42.081 5.87515 47.6397 5.87515C51.4215 5.87515 56.0425 6.52864 61.5028 7.83562V8.17874L61.6015 10.0412C61.6015 11.0214 61.6344 12.1978 61.7002 13.5701C61.7989 15.2366 61.8482 16.707 61.8482 17.9813C61.8482 18.8314 61.8153 19.877 61.7495 21.1181Z" fill="url(#paint2_linear_113_78)"/>
<path d="M26.919 41.6054H28.0537C28.2835 45.7883 29.9773 49.2355 33.1352 51.947C36.2264 54.6267 39.7785 55.9664 43.7916 55.9661C46.8828 55.9661 49.3989 55.1002 51.3399 53.3684C53.2801 51.6369 54.2503 49.562 54.2506 47.1438C54.2506 44.5952 53.3132 42.6184 51.4385 41.2133C49.6293 39.8409 46.0607 38.2889 40.7328 36.5571C36.4568 35.1525 33.4145 33.9925 31.6058 33.0772C29.5005 31.9989 27.856 30.5448 26.6723 28.715C25.3896 26.8525 24.7482 24.7613 24.7482 22.4414C24.7482 19.8606 25.6197 17.3283 27.3629 14.8445C26.9682 16.1188 26.7709 17.2297 26.7709 18.1773C26.7709 20.7259 27.3794 22.9642 28.5963 24.8921C29.8458 26.8855 31.3917 28.3886 33.2338 29.4012C35.0754 30.4473 38.1506 31.64 42.4595 32.9792C48.0837 34.6785 52.1456 36.5574 54.6453 38.6156C57.0458 40.6091 58.2463 43.2885 58.2467 46.6537C58.2467 49.9544 56.9969 52.9441 54.4973 55.623C51.9643 58.3355 48.1819 59.6915 43.1502 59.691C41.1105 59.691 38.2819 59.3152 34.6646 58.5637C31.5071 57.9105 29.1391 57.5674 27.5604 57.5345L27.215 57.1423C27.2474 56.5871 27.2638 55.8682 27.2644 54.9858C27.2644 53.9405 27.1657 52.323 26.9683 50.1336C26.8034 47.9448 26.7212 46.3111 26.7217 45.2323C26.7106 44.0204 26.7765 42.8091 26.919 41.6054V41.6054ZM61.7495 21.1181H60.7135C60.6803 17.328 59.1674 14.518 56.1747 12.6879C53.2469 10.8913 49.6948 9.99276 45.5183 9.99221C42.1958 9.99221 39.466 10.6947 37.3287 12.0997C35.1579 13.5051 34.0725 15.1879 34.0725 17.1481C34.0725 19.2396 34.9277 20.8897 36.638 22.0984C38.414 23.4056 41.9168 24.9577 47.1463 26.7545C52.0136 28.4209 55.4178 29.7769 57.3587 30.8225C59.4308 31.9667 61.1575 33.6004 62.5389 35.7238C63.9203 37.9133 64.611 40.3476 64.611 43.0267C64.611 47.1116 63.098 50.3137 60.0721 52.6331C61.1899 51.0977 61.7491 48.9411 61.7495 46.1635C61.7495 43.5497 61.1411 41.2298 59.9242 39.2037C58.6414 37.1452 57.0627 35.5115 55.1879 34.3025C53.28 33.0611 50.1719 31.7378 45.8636 30.3325C39.3838 28.2089 35.1574 26.3954 33.1845 24.8921C31.2111 23.3566 30.2244 20.9713 30.2244 17.7362C30.2244 14.0112 31.7373 11.0868 34.7632 8.96292C37.7888 6.9044 42.081 5.87515 47.6397 5.87515C51.4215 5.87515 56.0425 6.52864 61.5028 7.83562V8.17874L61.6015 10.0412C61.6015 11.0214 61.6344 12.1978 61.7002 13.5701C61.7989 15.2366 61.8482 16.707 61.8482 17.9813C61.8482 18.8314 61.8153 19.877 61.7495 21.1181Z" stroke="url(#paint3_linear_113_78)" stroke-width="0.649123" stroke-miterlimit="10"/>
<path d="M1.08563 34.9696H1.40984C1.4301 35.5356 1.5698 36.0911 1.81991 36.6001C2.07002 37.1091 2.42496 37.5603 2.86173 37.9243C3.69651 38.6716 4.78272 39.0813 5.90639 39.0726C6.78957 39.0726 7.50846 38.8252 8.06305 38.3304C8.61738 37.8356 8.89457 37.2428 8.89463 36.5519C8.89463 35.8238 8.62682 35.259 8.09118 34.8575C7.57428 34.4654 6.55469 34.022 5.03243 33.5272C3.81068 33.1259 2.94144 32.7944 2.42471 32.5329C1.85135 32.2498 1.36467 31.8195 1.01516 31.2866C0.650274 30.7597 0.458275 30.1337 0.465466 29.4942C0.465466 28.7568 0.714487 28.0333 1.21253 27.3236C1.10948 27.6311 1.05248 27.9519 1.04338 28.2758C1.02893 28.9517 1.20994 29.6176 1.56492 30.1943C1.88711 30.7303 2.34361 31.1742 2.88991 31.4827C3.41606 31.7816 4.29469 32.1223 5.5258 32.505C7.13271 32.9905 8.29326 33.5273 9.00745 34.1154C9.69331 34.6849 10.0363 35.4505 10.0364 36.412C10.0364 37.355 9.67935 38.2092 8.96515 38.9746C8.24147 39.7496 7.1608 40.1371 5.72316 40.137C5.14036 40.137 4.3322 40.0296 3.29867 39.8149C2.39653 39.6282 1.71994 39.5302 1.26891 39.5208L1.17022 39.4088C1.17948 39.2502 1.18417 39.0448 1.18431 38.7926C1.18431 38.4939 1.15613 38.0318 1.09976 37.4063C1.05262 36.7809 1.02912 36.3141 1.02923 36.0059C1.02609 35.6596 1.04493 35.3135 1.08563 34.9696ZM11.0373 29.1161H10.7412C10.7318 28.0332 10.2995 27.2303 9.44444 26.7074C8.60795 26.1941 7.59305 25.9374 6.39973 25.9372C5.45051 25.9372 4.67054 26.138 4.05983 26.5394C3.43967 26.9409 3.12956 27.4217 3.12953 27.9818C3.12128 28.2599 3.18419 28.5355 3.31239 28.7829C3.44058 29.0302 3.62986 29.2412 3.86251 29.3961C4.36996 29.7696 5.37077 30.2131 6.86493 30.7265C8.25555 31.2026 9.22816 31.59 9.78274 31.8888C10.3857 32.2259 10.8944 32.7073 11.2628 33.2891C11.6573 33.914 11.8627 34.6382 11.8548 35.3757C11.8548 36.5428 11.4225 37.4577 10.558 38.1204C10.8773 37.6817 11.0371 37.0655 11.0372 36.2719C11.0501 35.5741 10.8697 34.8862 10.5157 34.2834C10.1753 33.7222 9.71299 33.2438 9.1625 32.8831C8.61737 32.5283 7.72934 32.1502 6.49839 31.7488C4.64704 31.142 3.43951 30.6239 2.87579 30.1943C2.31196 29.7557 2.03004 29.0742 2.03003 28.1498C2.03003 27.0855 2.46231 26.25 3.32688 25.6431C4.19134 25.055 5.41765 24.7609 7.00582 24.7609C8.08636 24.7609 9.40666 24.9476 10.9667 25.321V25.4191L10.9949 25.9513C10.9949 26.2313 11.0043 26.5674 11.0231 26.9595C11.0513 27.4356 11.0654 27.8557 11.0654 28.2198C11.0654 28.4627 11.056 28.7615 11.0373 29.1161Z" fill="#003086"/>
<path d="M15.9426 30.5444C15.0686 31.5061 14.6317 32.9251 14.6316 34.8015C14.6316 36.678 15.0686 38.1157 15.9426 39.1147C14.3167 38.1999 13.5039 36.7435 13.504 34.7455C13.504 32.7759 14.3169 31.3755 15.9426 30.5444ZM15.5902 34.9416C15.5902 33.1305 15.9614 31.7815 16.7038 30.8945C17.4555 29.9983 18.4891 29.5502 19.8048 29.5502C21.0263 29.5502 22.0365 29.9469 22.8354 30.7405C23.634 31.5341 24.0334 32.8458 24.0335 34.6755C24.0335 36.6828 23.6059 38.0832 22.7508 38.8766C21.8861 39.6796 20.89 40.081 19.7625 40.0809C19.2098 40.0889 18.6616 39.9808 18.1539 39.7636C17.6462 39.5464 17.1904 39.225 16.8165 38.8205C15.9989 37.9898 15.5902 36.6968 15.5902 34.9416ZM16.7742 34.7175C16.7742 36.426 17.0374 37.5836 17.5636 38.1905C18.0898 38.7973 18.8369 39.1007 19.8048 39.1007C20.7162 39.1007 21.4539 38.7832 22.0178 38.1483C22.5722 37.5137 22.8494 36.356 22.8494 34.6755C22.8494 31.8467 21.8345 30.4324 19.8048 30.4324C17.7842 30.4324 16.7741 31.8608 16.7742 34.7175ZM23.6953 38.9606C24.5597 37.9992 24.992 36.6642 24.9921 34.9556C24.9977 34.078 24.8935 33.203 24.682 32.3509C24.4657 31.5201 24.1368 30.9133 23.6953 30.5304C25.3397 31.4361 26.1619 32.8271 26.162 34.7035C26.162 36.5054 25.3397 37.9244 23.6952 38.9606H23.6953Z" fill="#003086"/>
<path d="M30.2638 22.8985V36.258C30.2638 37.5277 30.3343 38.3586 30.4753 38.7506C30.633 39.1818 30.8616 39.584 31.1519 39.9409C30.6904 39.8252 30.2736 39.5768 29.9537 39.2267C29.6495 38.8719 29.4496 38.4407 29.3758 37.9804C29.2818 37.5137 29.2348 36.6828 29.2349 35.4877V26.1053C29.2349 25.2558 29.202 24.6817 29.1362 24.3828C29.058 24.0416 28.8817 23.7303 28.6288 23.4866C28.3471 23.2161 27.9873 23.0398 27.5998 22.9825V22.7444C27.891 22.7444 28.3373 22.7724 28.9389 22.8284C29.2395 22.8565 29.6811 22.8798 30.2638 22.8985ZM34.8591 39.2967L34.9296 39.5908C34.5112 39.9279 33.9882 40.111 33.4495 40.1089C32.6788 40.1089 32.1103 39.8148 31.7439 39.2267C31.3774 38.648 31.1942 37.6631 31.1942 36.272V22.8985C31.758 22.8798 32.1574 22.8565 32.3923 22.8284C32.2888 24.4249 32.2371 25.5732 32.2373 26.2733V35.6557C32.2373 36.804 32.2654 37.5882 32.3218 38.0084C32.3618 38.4057 32.5474 38.7745 32.8433 39.0446C33.1253 39.3247 33.5199 39.4648 34.0274 39.4648C34.3129 39.4622 34.5952 39.4051 34.8591 39.2967Z" fill="#003086"/>
<path d="M35.4934 29.9284V29.6903C36.3391 29.7743 37.2788 29.8257 38.3125 29.8443V36.566C38.3125 37.6212 38.3877 38.3307 38.5381 38.6946C38.6933 39.0712 38.9346 39.4068 39.2428 39.6749C38.7282 39.6306 38.2427 39.4189 37.8615 39.0727C37.4573 38.7274 37.2553 37.9712 37.2554 36.8041V32.9531C37.2554 31.9822 37.1379 31.2821 36.9029 30.8525C36.6585 30.4324 36.1887 30.1243 35.4934 29.9284ZM46.2484 29.8443V39.8289C45.8897 39.829 45.5315 39.8571 45.1773 39.9129C45.1865 39.8103 45.1935 39.6749 45.1982 39.5068C45.203 39.3388 45.2054 39.1847 45.2054 39.0447C44.0024 39.6797 42.9029 39.9971 41.907 39.9969C41.2209 39.9969 40.6712 39.8428 40.2577 39.5348C39.8567 39.2667 39.5665 38.864 39.4402 38.4005C39.3085 37.9244 39.2427 37.2802 39.2428 36.468V29.8443C39.5248 29.8443 39.9101 29.8209 40.3987 29.7743C40.3525 30.0567 40.3289 30.3423 40.3282 30.6285C40.3187 30.8805 40.3047 31.1186 40.286 31.3426V36.776C40.286 37.6257 40.4175 38.2232 40.6806 38.5685C40.9531 38.9326 41.4887 39.1147 42.2875 39.1147C43.0861 39.1147 44.0588 38.8019 45.2054 38.1764V32.701C45.2054 31.8236 45.088 31.1794 44.853 30.7684C44.6179 30.3577 44.181 30.0777 43.5421 29.9283V29.6902C44.0213 29.7462 44.4536 29.7812 44.8389 29.7952C45.2242 29.8092 45.694 29.8256 46.2484 29.8443V29.8443ZM47.1929 39.8289V29.8443C48.3298 29.8257 49.2695 29.7743 50.012 29.6902V29.9284C49.3446 30.0872 48.8841 30.3813 48.6306 30.8106C48.3769 31.2401 48.25 31.9216 48.25 32.8551V36.7341C48.25 37.7238 48.3769 38.4427 48.6306 38.8907C48.8843 39.3296 49.3448 39.6143 50.012 39.7448V39.9969C49.6925 39.9595 49.2179 39.9222 48.5882 39.8848C47.9587 39.8474 47.4936 39.8288 47.1929 39.8288V39.8289Z" fill="#003086"/>
<path d="M53.9024 30.6844C52.9344 31.562 52.4504 32.9297 52.4505 34.7875C52.4505 36.5613 52.864 37.901 53.691 38.8065C52.9178 38.4864 52.2871 37.8995 51.9148 37.154C51.5184 36.4267 51.3056 35.6146 51.2947 34.7875C51.2943 34.173 51.414 33.5643 51.6471 32.9951C51.8726 32.4163 52.1451 31.9682 52.4646 31.6507C52.7934 31.324 53.2727 31.0019 53.9024 30.6844ZM57.3277 40.0529C56.5383 40.0529 55.6878 39.6001 54.7763 38.6945C53.8552 37.7797 53.3948 36.5333 53.3949 34.9555C53.3949 33.4245 53.8178 32.1642 54.6635 31.1746C55.4904 30.1851 56.8154 29.6903 58.6385 29.6902C59.9379 29.6941 61.2264 29.9264 62.4443 30.3763C62.4417 30.5074 62.4323 30.6383 62.4162 30.7684C62.4067 30.8713 62.402 30.9553 62.4021 31.0205C62.4021 31.338 62.4256 31.7627 62.4726 32.2948C62.5008 32.6123 62.5149 32.8317 62.5149 32.953C62.5071 33.197 62.4835 33.4402 62.4443 33.6812H62.1484C61.9228 32.6544 61.4624 31.8655 60.767 31.3146C60.0809 30.7733 59.2587 30.5025 58.3002 30.5024C57.2101 30.5024 56.3127 30.8665 55.608 31.5947C54.8936 32.3137 54.5365 33.3313 54.5366 34.6475C54.5366 35.9358 54.8562 37.0094 55.4952 37.8683C56.1246 38.7179 57.0549 39.1426 58.2861 39.1426C59.9869 39.1426 61.3072 38.2977 62.2471 36.608H62.7968C62.1484 38.8674 60.6542 40.0297 58.3143 40.0948L57.4263 41.3832C58.0934 41.3832 58.6384 41.5979 59.0614 42.0273C59.4843 42.466 59.6957 42.9515 59.6957 43.4837C59.6957 44.2399 59.3433 44.8981 58.6385 45.4582C57.9243 46.0184 56.947 46.2985 55.7067 46.2984V45.6402C57.4919 45.4628 58.3846 44.8467 58.3848 43.7918C58.3929 43.5866 58.3447 43.3831 58.2454 43.2031C58.1461 43.023 57.9994 42.8731 57.821 42.7695C57.4312 42.5323 56.9812 42.4108 56.5242 42.4194C56.1701 42.4314 55.8171 42.4641 55.4669 42.5175C56.1566 41.75 56.7791 40.9255 57.3277 40.0529L57.3277 40.0529Z" fill="#003086"/>
<path d="M66.208 34.7175C65.6369 35.3976 65.3229 36.2545 65.32 37.1401C65.32 38.1764 65.6865 39.0259 66.4194 39.6888C65.8401 39.5549 65.3117 39.2584 64.8971 38.8346C64.4366 38.4053 64.2064 37.8452 64.2064 37.1541C64.2064 35.9499 64.8736 35.1377 66.208 34.7175ZM73.8056 24.733H74.4822C73.9558 26.4042 73.0114 27.2398 71.649 27.2396C71.1507 27.2396 70.211 26.9456 68.8298 26.3574C68.2378 26.1147 67.7539 25.9934 67.378 25.9933C66.5604 25.9933 65.973 26.4087 65.616 27.2396H64.9534C65.4515 25.5592 66.3771 24.719 67.7304 24.719C68.2283 24.719 69.2855 25.0411 70.9018 25.6853C71.3716 25.8813 71.7569 25.9793 72.0578 25.9793C72.9222 25.9793 73.5048 25.5638 73.8056 24.733ZM70.5918 34.2414V32.757C70.5918 32.0849 70.4555 31.5574 70.183 31.1746C69.9011 30.8013 69.3561 30.6146 68.5479 30.6145C67.2886 30.6145 66.2267 31.0859 65.3623 32.0289L65.0099 31.6928C65.3574 31.1046 65.9071 30.6191 66.659 30.2364C67.3864 29.878 68.1871 29.6911 68.999 29.6902C70.7561 29.6902 71.6347 30.6425 71.6349 32.547V39.8288C71.2672 39.8371 70.9022 39.8936 70.5495 39.9969L70.5918 39.2547C70.3814 39.4897 70.1229 39.6774 69.8336 39.8054C69.5444 39.9334 69.231 39.9986 68.9144 39.9969C68.5583 40.0018 68.2058 39.9261 67.8834 39.7757C67.5611 39.6253 67.2774 39.4041 67.0538 39.1287C66.5357 38.5562 66.2634 37.8052 66.295 37.036C66.3266 36.2668 66.6596 35.5403 67.2229 35.0116C67.8242 34.4143 68.6276 34.1155 69.6333 34.1154C69.9569 34.1159 70.2791 34.1583 70.5918 34.2414ZM70.5918 38.6666V35.0116C70.33 34.9776 70.0664 34.9589 69.8024 34.9556C69.0599 34.9556 68.482 35.1796 68.0687 35.6278C67.6679 36.0527 67.446 36.6139 67.4484 37.1962C67.4372 37.6992 67.6244 38.1867 67.97 38.5545C68.1298 38.7407 68.3287 38.8899 68.5527 38.9915C68.7768 39.0931 69.0205 39.1447 69.2668 39.1427C69.7489 39.1319 70.2143 38.9647 70.5918 38.6666ZM75.2716 39.9969L72.5652 39.8289V32.561C72.5652 31.8236 72.4947 31.2821 72.3537 30.9366C72.1729 30.5584 71.8836 30.2417 71.5222 30.0263C72.3397 30.1852 72.8941 30.4746 73.1854 30.8946C73.4766 31.3241 73.6223 32.0942 73.6224 33.2052V37.5323C73.6224 38.2699 73.7257 38.7973 73.9325 39.1147C74.1299 39.4322 74.5762 39.6423 75.2716 39.7448L75.2716 39.9969Z" fill="#003086"/>
<path d="M79.0915 30.5444C78.2175 31.5061 77.7806 32.9251 77.7806 34.8015C77.7807 36.678 78.2176 38.1157 79.0915 39.1147C77.4657 38.1999 76.6528 36.7435 76.653 34.7455C76.653 32.7759 77.4658 31.3755 79.0915 30.5444ZM78.7391 34.9416C78.7391 33.1305 79.1103 31.7815 79.8527 30.8945C80.6043 29.9983 81.638 29.5502 82.9537 29.5502C84.1753 29.5502 85.1854 29.9469 85.9843 30.7405C86.7829 31.5341 87.1823 32.8458 87.1825 34.6755C87.1825 36.6828 86.7549 38.0832 85.8998 38.8766C85.035 39.6796 84.0389 40.081 82.9115 40.0809C82.3588 40.0889 81.8106 39.9808 81.3028 39.7636C80.7951 39.5464 80.3394 39.225 79.9655 38.8205C79.1479 37.9898 78.7391 36.6968 78.7391 34.9416ZM79.9231 34.7175C79.9231 36.426 80.1862 37.5836 80.7125 38.1905C81.2387 38.7973 81.9858 39.1007 82.9537 39.1007C83.8651 39.1007 84.6028 38.7832 85.1667 38.1483C85.7211 37.5137 85.9984 36.356 85.9985 34.6755C85.9985 31.8467 84.9835 30.4324 82.9537 30.4324C80.9332 30.4324 79.923 31.8608 79.9232 34.7175H79.9231ZM86.8441 38.9606C87.7086 37.9992 88.1408 36.6642 88.1409 34.9556C88.1465 34.078 88.0423 33.2031 87.8309 32.3509C87.6146 31.5201 87.2857 30.9133 86.8441 30.5304C88.4885 31.4361 89.3107 32.8271 89.311 34.7035C89.311 36.5054 88.4887 37.9244 86.8442 38.9606H86.8441Z" fill="#003086"/>
<path d="M0.781982 48.5756L3.36114 41.9036H4.31858L7.06725 48.5756H6.0548L5.27145 46.5548H2.46317L1.72561 48.5756H0.781982ZM2.71979 45.8358H4.99657L4.29566 43.9879C4.08189 43.4267 3.92308 42.9655 3.81925 42.6045C3.73212 43.0379 3.61112 43.464 3.45735 43.8788L2.71979 45.8358Z" fill="#003086"/>
<path d="M7.672 50.4279V43.7423H8.42328V44.3703C8.57926 44.1438 8.78432 43.9548 9.02341 43.8173C9.27339 43.688 9.55256 43.6246 9.83426 43.633C10.2248 43.6258 10.6083 43.7369 10.9337 43.9516C11.2586 44.173 11.5091 44.486 11.653 44.8504C11.8181 45.2542 11.9007 45.6866 11.8958 46.1225C11.903 46.5816 11.8116 47.037 11.6277 47.4582C11.4672 47.8332 11.1955 48.1506 10.849 48.3685C10.5285 48.5735 10.1558 48.6833 9.77469 48.6848C9.51746 48.689 9.26323 48.6296 9.03487 48.5118C8.82681 48.405 8.64347 48.2562 8.49658 48.075V50.4279H7.672ZM8.4187 46.1862C8.4187 46.8082 8.54545 47.2679 8.79894 47.5653C8.90811 47.7044 9.04782 47.8168 9.2074 47.8941C9.36697 47.9714 9.54221 48.0115 9.71975 48.0112C9.90174 48.0107 10.0812 47.9689 10.2444 47.8888C10.4076 47.8087 10.5501 47.6926 10.6612 47.5493C10.9223 47.2413 11.0528 46.7642 11.0529 46.118C11.0529 45.5021 10.9253 45.0409 10.6703 44.7344C10.564 44.593 10.4262 44.4779 10.2676 44.3981C10.1091 44.3184 9.93409 44.2762 9.75639 44.2748C9.40513 44.2748 9.09438 44.4379 8.82413 44.764C8.55389 45.0902 8.41874 45.5643 8.4187 46.1862Z" fill="#003086"/>
<path d="M12.5829 46.1589C12.5829 45.2639 12.8333 44.6009 13.3342 44.17C13.7599 43.8093 14.305 43.618 14.8643 43.633C15.5331 43.633 16.0798 43.8507 16.5043 44.286C16.9288 44.7214 17.141 45.323 17.1411 46.0906C17.1411 46.7126 17.0472 47.2019 16.8594 47.5584C16.6758 47.9105 16.3902 48.1999 16.0394 48.389C15.6798 48.5864 15.2751 48.6883 14.8643 48.6848C14.1832 48.6848 13.6327 48.4679 13.2128 48.034C12.7928 47.6001 12.5829 46.9751 12.5829 46.1589ZM13.4304 46.1589C13.4304 46.7779 13.5663 47.2413 13.8381 47.5493C13.9657 47.6946 14.1232 47.811 14.2999 47.8907C14.4766 47.9703 14.6685 48.0114 14.8625 48.0112C15.0566 48.011 15.2484 47.9695 15.4249 47.8894C15.6014 47.8093 15.7586 47.6925 15.8859 47.547C16.1577 47.2375 16.2936 46.7658 16.2936 46.1316C16.2936 45.5339 16.1569 45.081 15.8836 44.7731C15.7561 44.6282 15.599 44.512 15.4227 44.4324C15.2464 44.3527 15.055 44.3114 14.8614 44.3112C14.6677 44.3109 14.4762 44.3518 14.2997 44.4311C14.1233 44.5104 13.9659 44.6262 13.8381 44.7708C13.5662 45.0773 13.4303 45.54 13.4304 46.1589Z" fill="#003086"/>
<path d="M18.1123 42.8457V41.9036H18.9368V42.8457H18.1123ZM18.1123 48.5756V43.7422H18.9368V48.5756H18.1123Z" fill="#003086"/>
<path d="M19.8853 46.1589C19.8853 45.2639 20.1357 44.6009 20.6365 44.1701C21.0622 43.8094 21.6073 43.618 22.1666 43.633C22.8355 43.633 23.3821 43.8507 23.8066 44.286C24.2311 44.7214 24.4434 45.323 24.4434 46.0906C24.4434 46.7126 24.3495 47.2019 24.1617 47.5584C23.9782 47.9105 23.6925 48.1999 23.3417 48.389C22.9821 48.5864 22.5774 48.6883 22.1666 48.6848C21.4855 48.6848 20.935 48.4679 20.5151 48.034C20.0952 47.6001 19.8852 46.9751 19.8853 46.1589ZM20.7327 46.1589C20.7327 46.7779 20.8687 47.2414 21.1405 47.5493C21.2681 47.6946 21.4256 47.811 21.6023 47.8907C21.779 47.9704 21.9708 48.0115 22.1649 48.0112C22.359 48.011 22.5507 47.9695 22.7273 47.8894C22.9038 47.8093 23.061 47.6925 23.1882 47.547C23.46 47.2376 23.5959 46.7658 23.5959 46.1317C23.5959 45.5339 23.4593 45.0811 23.1859 44.7731C23.0585 44.6282 22.9014 44.512 22.7251 44.4324C22.5488 44.3527 22.3574 44.3114 22.1637 44.3112C21.9701 44.311 21.7786 44.3519 21.6021 44.4311C21.4256 44.5104 21.2682 44.6262 21.1405 44.7708C20.8686 45.0773 20.7327 45.54 20.7327 46.1589H20.7327Z" fill="#003086"/>
<path d="M54.6241 2.45963L50.2105 18.8235" stroke="url(#paint4_linear_113_78)" stroke-width="0.519298" stroke-miterlimit="10"/>
<path d="M41.6842 47.6361L37.2707 64" stroke="url(#paint5_linear_113_78)" stroke-width="0.519298" stroke-miterlimit="10"/>
</g>
<defs>
<linearGradient id="paint0_linear_113_78" x1="33.1579" y1="62.4816" x2="37.5177" y2="46.1034" gradientUnits="userSpaceOnUse">
<stop offset="0.198" stop-color="#917C4A"/>
<stop offset="0.2649" stop-color="#9E8753"/>
<stop offset="0.4098" stop-color="#B49B62"/>
<stop offset="0.5683" stop-color="#C4A86D"/>
<stop offset="0.7489" stop-color="#CDB073"/>
<stop offset="1" stop-color="#D0B375"/>
</linearGradient>
<linearGradient id="paint1_linear_113_78" x1="1984.76" y1="1452.01" x2="1984.76" y2="-1198.95" gradientUnits="userSpaceOnUse">
<stop offset="0.198" stop-color="#917C4A"/>
<stop offset="0.2649" stop-color="#9E8753"/>
<stop offset="0.4098" stop-color="#B49B62"/>
<stop offset="0.5683" stop-color="#C4A86D"/>
<stop offset="0.7489" stop-color="#CDB073"/>
<stop offset="1" stop-color="#D0B375"/>
</linearGradient>
<linearGradient id="paint2_linear_113_78" x1="16944.7" y1="30723.7" x2="16944.7" y2="3029.31" gradientUnits="userSpaceOnUse">
<stop offset="0.198" stop-color="#917C4A"/>
<stop offset="0.2649" stop-color="#9E8753"/>
<stop offset="0.4098" stop-color="#B49B62"/>
<stop offset="0.5683" stop-color="#C4A86D"/>
<stop offset="0.7489" stop-color="#CDB073"/>
<stop offset="1" stop-color="#D0B375"/>
</linearGradient>
<linearGradient id="paint3_linear_113_78" x1="16944.7" y1="30723.7" x2="16944.7" y2="3029.31" gradientUnits="userSpaceOnUse">
<stop offset="0.198" stop-color="#917C4A"/>
<stop offset="0.2649" stop-color="#9E8753"/>
<stop offset="0.4098" stop-color="#B49B62"/>
<stop offset="0.5683" stop-color="#C4A86D"/>
<stop offset="0.7489" stop-color="#CDB073"/>
<stop offset="1" stop-color="#D0B375"/>
</linearGradient>
<linearGradient id="paint4_linear_113_78" x1="2197.92" y1="1492.45" x2="2197.92" y2="-1158.51" gradientUnits="userSpaceOnUse">
<stop offset="0.198" stop-color="#917C4A"/>
<stop offset="0.2649" stop-color="#9E8753"/>
<stop offset="0.4098" stop-color="#B49B62"/>
<stop offset="0.5683" stop-color="#C4A86D"/>
<stop offset="0.7489" stop-color="#CDB073"/>
<stop offset="1" stop-color="#D0B375"/>
</linearGradient>
<linearGradient id="paint5_linear_113_78" x1="2154.39" y1="8886.6" x2="2154.39" y2="6235.64" gradientUnits="userSpaceOnUse">
<stop offset="0.198" stop-color="#917C4A"/>
<stop offset="0.2649" stop-color="#9E8753"/>
<stop offset="0.4098" stop-color="#B49B62"/>
<stop offset="0.5683" stop-color="#C4A86D"/>
<stop offset="0.7489" stop-color="#CDB073"/>
<stop offset="1" stop-color="#D0B375"/>
</linearGradient>
<clipPath id="clip0_113_78">
<rect width="90" height="64" fill="white"/>
</clipPath>
</defs>
</svg>
